<svg preserveAspectRatio="none" width="48" height="48" viewBox="0 0 48 48" fill="none" xmlns="http://www.w3.org/2000/svg">
<g id="Group">
<path id="Vector" d="M6.19344 0C2.77284 0 0 2.77284 0 6.19344V41.8066C0 45.2268 2.77284 48 6.19344 48H41.8066C45.2268 48 48 45.2268 48 41.8066V6.19344C47.9996 2.77284 45.2264 0 41.8062 0H6.19344ZM6.19344 3.0969H41.8066C42.6278 3.097 43.4153 3.42327 43.996 4.00397C44.5767 4.58466 44.903 5.37222 44.9031 6.19344V41.8066C44.903 42.6278 44.5767 43.4153 43.996 43.996C43.4153 44.5767 42.6278 44.903 41.8066 44.9031H6.19344C5.37222 44.903 4.58466 44.5767 4.00397 43.996C3.42327 43.4153 3.097 42.6278 3.0969 41.8066V6.19344C3.097 5.37222 3.42327 4.58466 4.00397 4.00397C4.58466 3.42327 5.37222 3.097 6.19344 3.0969Z" fill="var(--fill-0, #0671D8)"/>
<path id="Vector_2" d="M21.6781 32.5157V35.6122H38.7102V32.516L21.6781 32.5157ZM21.6781 12.3867V29.0318H25.162V15.4836H28.6459V29.0318H32.1298V15.4836H34.4524C34.7603 15.4837 35.0556 15.6061 35.2733 15.8239C35.491 16.0417 35.6133 16.337 35.6133 16.6449V29.0318H39.0972V16.2576C39.0972 14.1197 37.3642 12.3867 35.2263 12.3867H21.6781ZM12.7751 12.3867C10.6373 12.3867 8.90391 14.1197 8.90391 16.2576V25.1609C8.90391 27.2988 10.6373 29.0318 12.7751 29.0318H15.8717V29.8061C15.8717 31.3024 14.4854 32.5157 12.7751 32.5157H10.8395V35.6122H12.7751C16.4093 35.6122 19.3555 33.0127 19.3555 29.8061V12.3867H12.7751ZM13.5491 15.4836H15.8717V25.9349H13.5491C13.2411 25.9349 12.9457 25.8125 12.7279 25.5948C12.5101 25.377 12.3878 25.0816 12.3878 24.7736V16.6449C12.3878 16.3369 12.5101 16.0415 12.7279 15.8238C12.9457 15.606 13.2411 15.4836 13.5491 15.4836Z" fill="var(--fill-0, #0671D8)"/>
</g>
</svg>
